<?xml version="1.0" encoding="UTF-8"?><svg id="Sad2" xmlns="http://www.w3.org/2000/svg" viewBox="0 0 128 128"><defs><style>.cls-1{fill:#f0d644;}.cls-2{fill:#dd1b50;}.cls-3{fill:#82c891;}.cls-4{fill:#f9fafb;}</style></defs><g><g><path class="cls-3" d="M113.48,44.49l3.65-10.1c.21-.57,.84-.87,1.41-.66,.57,.21,.87,.84,.66,1.41l-2.48,6.86,8.06-.69c.61-.04,1.14,.4,1.19,1s-.4,1.14-1,1.19l-11.49,.99Z"/><path class="cls-3" d="M111.55,45.97l4.34-12.03c.22-.61,.66-1.09,1.25-1.37,.58-.27,1.24-.31,1.85-.08,.6,.22,1.09,.66,1.36,1.24,.27,.58,.3,1.24,.09,1.85l-1.78,4.93,6.01-.52c1.33-.12,2.5,.89,2.61,2.2,.11,1.33-.87,2.5-2.2,2.61l-13.54,1.16Z"/></g><g><path class="cls-3" d="M9.65,100.04c-.18,0-.35-.04-.52-.13-.54-.29-.74-.95-.45-1.49l3.57-6.68-7.78,.61c-.61,.05-1.14-.41-1.19-1.01-.05-.61,.41-1.14,1.01-1.19l11.79-.92-5.46,10.23c-.2,.37-.58,.58-.97,.58Z"/><path class="cls-3" d="M9.66,101.36c-.4,0-.79-.1-1.14-.29-1.17-.63-1.62-2.09-.99-3.27l2.44-4.56-5.39,.42c-.64,.05-1.26-.15-1.75-.57-.49-.42-.79-1.01-.84-1.65-.05-.65,.15-1.27,.57-1.76,.42-.49,1-.79,1.65-.84l14.18-1.11-6.59,12.34c-.42,.79-1.24,1.28-2.13,1.28Zm-5.29-10.31h0Z"/></g><g><path class="cls-3" d="M30.07,36.28l-10.47-2.37c-.59-.13-.97-.72-.83-1.32,.13-.59,.72-.97,1.32-.83l7.11,1.61-1.68-7.91c-.13-.6,.25-1.18,.85-1.31,.59-.13,1.18,.25,1.31,.85l2.4,11.28Z"/><path class="cls-3" d="M31.78,38.01l-12.47-2.82c-1.3-.29-2.12-1.59-1.82-2.89,.29-1.3,1.59-2.11,2.89-1.82l5.11,1.16-1.26-5.91c-.28-1.3,.56-2.59,1.86-2.87,1.31-.28,2.59,.56,2.87,1.86l2.83,13.29Z"/></g><g><path class="cls-3" d="M2.93,66.66c-.47,0-.91-.3-1.05-.78-.18-.58,.15-1.2,.73-1.38l6.97-2.15-5.4-6.02c-.41-.45-.37-1.15,.08-1.56,.45-.41,1.15-.37,1.56,.08l7.71,8.58-10.26,3.16c-.11,.03-.22,.05-.33,.05Z"/><path class="cls-3" d="M2.93,67.98c-1.07,0-1.99-.68-2.31-1.7-.39-1.27,.32-2.63,1.6-3.02l5.01-1.55-4.03-4.49c-.43-.48-.65-1.1-.62-1.74,.03-.64,.32-1.24,.8-1.67,.48-.43,1.11-.65,1.74-.62,.64,.04,1.24,.32,1.67,.8l9.08,10.11-12.22,3.77c-.23,.07-.47,.11-.71,.11Z"/></g></g><g><path class="cls-1" d="M73.85,15.11c.56-.63,.97-1.16,1.45-1.62,1.01-.99,2.11-1.84,3.62-1.88,2.08-.06,3.69,1.37,3.88,3.44,.29,3.12-1.03,5.47-3.43,7.34-1.76,1.38-3.8,2.02-5.95,2.33-.59,.08-1.27-.05-1.82-.3-2.79-1.24-4.79-3.38-6.39-5.92-.99-1.57-1.54-3.27-1.4-5.16,.16-2.09,1.54-3.99,3.56-4.54,1.56-.43,2.95-.18,4.17,1.11,1.19,1.26,1.78,2.72,2.1,4.36,.04,.22,.11,.43,.22,.84Z"/><path class="cls-1" d="M79.44,11.99c-.41-.68-.7-1.24-1.04-1.74-.73-1.06-1.52-1.98-2.61-2.02-1.5-.06-2.66,1.47-2.8,3.69-.21,3.35,.74,5.87,2.47,7.89,1.27,1.48,2.74,2.17,4.3,2.51,.42,.09,.92-.06,1.32-.32,2.02-1.34,3.46-3.63,4.61-6.36,.71-1.68,1.11-3.51,1.01-5.55-.11-2.25-1.11-4.28-2.57-4.88-1.12-.46-2.13-.19-3.01,1.19-.86,1.36-1.29,2.93-1.52,4.68-.03,.23-.08,.46-.16,.9Z"/></g><g><path class="cls-2" d="M126.17,77.18c0,34.74-13.2,45.16-45.86,44.47-33.09-.7-73.3-13.49-71.56-46.55,1.4-26.61,20.25-51.09,47.55-54.35,7.6-.91,15.71-1.67,23.31-.54,32.65,4.86,46.55,23.87,46.55,56.97Z"/><path class="cls-2" d="M83.25,123c-.97,0-1.96-.01-2.97-.03-27.61-.59-51.29-8.69-63.35-21.68-6.84-7.36-10.04-16.2-9.51-26.27,.71-13.52,5.82-26.56,14.37-36.71,8.93-10.6,21.12-17.3,34.34-18.88,7.31-.87,15.77-1.71,23.67-.53,16.59,2.47,28.49,8.48,36.36,18.38,7.62,9.57,11.32,22.62,11.32,39.9s-3.37,28.93-10.61,36.01c-6.89,6.74-17.33,9.81-33.63,9.81Zm-11.95-102.04c-5.09,0-10.2,.54-14.84,1.09-25.42,3.04-44.93,25.37-46.39,53.11-.49,9.32,2.47,17.51,8.8,24.33,11.58,12.47,34.56,20.26,61.47,20.83,17.25,.36,27.95-2.42,34.69-9.02,6.69-6.55,9.81-17.4,9.81-34.12,0-33.36-14.43-51.05-45.42-55.66-2.65-.39-5.38-.55-8.12-.55Z"/></g><path class="cls-4" d="M33.42,77.2c-.6,.39-1.13,.66-1.57,1.03-.72,.62-1.48,.95-2.21,.17-.67-.71-.41-1.45,.2-2.14,1.18-1.33,1.17-1.8-.02-3.12-.61-.68-.87-1.41-.19-2.13,.69-.72,1.43-.48,2.13,.1,1.48,1.23,1.74,1.23,3.3-.07,.68-.57,1.39-.7,2.04-.05,.61,.61,.48,1.31-.02,1.97q-1.33,1.76,0,3.48c.5,.65,.64,1.34,.04,1.96-.65,.68-1.36,.51-2.04-.03-.49-.39-1.02-.73-1.65-1.17Z"/><path class="cls-4" d="M109.65,77.2c-.6,.39-1.13,.66-1.57,1.03-.72,.62-1.48,.95-2.21,.17-.67-.71-.41-1.45,.2-2.14,1.18-1.33,1.17-1.8-.02-3.12-.61-.68-.87-1.41-.19-2.13,.69-.72,1.43-.48,2.13,.1,1.48,1.23,1.74,1.23,3.3-.07,.68-.57,1.39-.7,2.04-.05,.61,.61,.48,1.31-.02,1.97q-1.33,1.76,0,3.48c.5,.65,.64,1.34,.04,1.96-.65,.68-1.36,.51-2.04-.03-.49-.39-1.02-.73-1.65-1.17Z"/><path class="cls-4" d="M59.5,83.13c-2.36-.5-2.83-2.33-1.37-3.95,3.67-4.08,7.66-7.88,11.58-11.74,1.45-1.42,2.82-.67,3.99,.5,3.47,3.44,6.92,6.91,10.37,10.37,1.18,1.19,1.94,2.75,.72,4.07-1.42,1.53-3.05,.67-4.45-.51-3.12-2.62-5.23-7.79-9.1-7.71-3.54,.07-5.76,4.99-8.72,7.59-.82,.72-1.65,1.36-3.03,1.38Z"/><path class="cls-4" d="M54.01,54.8c-.1,3.6-2.79,6.1-6.57,6.08-3.98-.02-6.51-2.67-6.37-6.69,.12-3.47,3.06-6.29,6.51-6.26,3.52,.03,6.53,3.25,6.44,6.87Z"/><path class="cls-4" d="M101.8,54.37c.07,3.68-2.47,6.37-6.15,6.5-3.99,.14-6.83-2.45-6.85-6.26-.02-3.39,2.86-6.52,6.16-6.69,3.54-.18,6.77,2.86,6.84,6.45Z"/></svg>